<?xml version="1.0" encoding="UTF-8" standalone="no"?>
<svg
   viewBox="0 0 512 512"
   version="1.1"
   id="svg3"
   sodipodi:docname="icon.svg"
   inkscape:version="1.4 (e7c3feb1, 2024-10-09)"
   xmlns:inkscape="http://www.inkscape.org/namespaces/inkscape"
   xmlns:sodipodi="http://sodipodi.sourceforge.net/DTD/sodipodi-0.dtd"
   xmlns="http://www.w3.org/2000/svg"
   xmlns:svg="http://www.w3.org/2000/svg">
  <defs
     id="defs3">
    <linearGradient id="bg" x1="0%" y1="0%" x2="100%" y2="100%">
      <stop offset="0%" style="stop-color:#e85d4c"/>
      <stop offset="100%" style="stop-color:#d4a574"/>
    </linearGradient>
  </defs>
  <sodipodi:namedview
     id="namedview3"
     pagecolor="#ffffff"
     bordercolor="#000000"
     borderopacity="0.25"
     inkscape:showpageshadow="2"
     inkscape:pageopacity="0.0"
     inkscape:pagecheckerboard="0"
     inkscape:deskcolor="#d1d1d1"
     inkscape:zoom="0.51198725"
     inkscape:cx="-150.39437"
     inkscape:cy="348.6415"
     inkscape:window-width="1728"
     inkscape:window-height="964"
     inkscape:window-x="0"
     inkscape:window-y="34"
     inkscape:window-maximized="0"
     inkscape:current-layer="svg3" />
  <!-- Coral/salmon gradient background matching app theme -->
  <rect
     width="512"
     height="512"
     rx="108"
     fill="url(#bg)"
     id="rect1" />
  <!-- Hand-drawn style handheld microphone (cream/off-white) - pointing right -->
  <g
     fill="none"
     stroke="#333333"
     stroke-width="22"
     stroke-linecap="round"
     stroke-linejoin="round"
     transform="matrix(0.89837469,0.58072644,-0.56170212,0.92281248,245.71331,252.13985)"
     id="g3">
    <!-- Mic head outline -->
    <!-- Crosshatch lines on head -->
    <!-- Handle -->
    <g
       id="g4"
       transform="matrix(1.1270099,0.40782286,-0.37610928,1.1496501,10.102915,-12.693424)">
      <line
         x1="-35"
         y1="-105"
         x2="35"
         y2="-105"
         stroke-width="16"
         id="line1" />
      <line
         x1="-45"
         y1="-70"
         x2="45"
         y2="-70"
         stroke-width="16"
         id="line2" />
      <line
         x1="-35"
         y1="-35"
         x2="35"
         y2="-35"
         stroke-width="16"
         id="line3" />
      <g
         id="g5">
        <ellipse
           cx="0"
           cy="-70"
           rx="55"
           ry="68"
           id="ellipse1" />
        <path
           d="M -31.773622,-5.8043243 -27.85921,147.21869 c 21.3333339,20 42.666667,20 64,0 L 35.561536,-5.1654135"
           id="path3"
           sodipodi:nodetypes="cccc" />
      </g>
    </g>
    <path
       style="fill:none;stroke-width:18.977"
       d="m -42.194653,177.90958 c -8.441466,4.71175 -12.889029,12.21394 -15.275293,21.62416 -0.56077,2.21138 -0.06501,4.92328 -0.746093,7.07938 -1.071381,3.39166 -2.208905,8.41825 -1.881288,12.24559 0.128599,1.5025 0.671285,1.80617 0.264765,3.0931 -0.269937,0.85452 -1.109546,1.70973 -0.886502,2.80638 0.344285,1.69281 1.232244,5.12374 1.04299,6.9195 -0.0293,0.27809 -0.608499,0.1685 -0.637811,0.4466 -0.131075,1.24371 0.668761,2.54757 0.778226,3.82639 0.06927,0.80881 -0.412759,1.55312 -0.248692,2.3598 0.23181,1.13977 1.40398,3.49417 1.291686,4.55969 -0.0293,0.2781 -0.608499,0.1685 -0.637808,0.44661 -0.0293,0.2781 0.455453,0.44808 0.513457,0.73329 0.164066,0.80668 -0.517792,1.57076 -0.248692,2.3598 0.190275,0.55791 0.836641,0.90865 1.026922,1.46659 0.261999,0.76822 1.603441,7.20693 1.556453,7.6528 -0.0293,0.2781 -0.6085,0.16848 -0.637809,0.44658 -0.05385,0.51094 2.856125,6.53133 2.832071,6.7596 -0.0293,0.27811 -0.608499,0.16849 -0.637809,0.44659 -0.08152,0.77352 1.47833,2.78867 1.416033,3.37979 -0.0293,0.27811 -0.608499,0.16852 -0.637809,0.44661 -0.05428,0.51492 0.979508,4.81604 1.167339,5.73958 0.116019,0.57041 1.085543,0.9104 1.026923,1.46661 -0.0293,0.2781 -0.608501,0.16848 -0.63781,0.4466 -0.0442,0.41938 1.071224,1.04627 1.026922,1.46659 -0.0293,0.2781 -0.608501,0.16849 -0.637808,0.44661 -0.05862,0.55619 0.684619,0.97773 1.026924,1.46658"
       id="path5" />
  </g>
</svg>
