<?xml version="1.0" encoding="UTF-8"?>
<svg width="1200pt" height="1200pt" version="1.1" viewBox="0 0 1200 1200" xmlns="http://www.w3.org/2000/svg">
 <path d="m528 795.24c11.766 0 23.391-3.9375 31.219-15.609l507.32-663.47c11.766-15.609 11.766-42.938-7.7812-54.609-15.609-11.766-42.938-11.766-54.609 7.7812l-222.47 292.69-39-187.31c-15.609-70.219-78-120.94-148.31-120.94h-132.71c-70.219 0-132.71 46.781-148.31 117.14l-183.47 800.06c-11.766 42.938 0 85.781 27.375 120.94s66.375 54.609 109.31 54.609h519c42.938 0 85.781-19.547 113.16-54.609 27.375-35.156 35.156-78 27.375-120.94l-97.547-378.61c-3.9375-19.547-27.375-35.156-46.781-27.375-19.547 3.9375-35.156 27.375-27.375 46.781l58.547 226.31h-573.79l148.31-643.92c7.7812-35.156 39-58.547 70.219-58.547h132.71c35.156 0 66.375 23.391 70.219 58.547l54.609 253.69-218.53 288.84c-11.766 15.609-11.766 42.938 7.7812 54.609 7.7812 0 15.609 3.9375 23.391 3.9375z" fill="#fff"/>
 <path d="m489 287.86h78c23.391 0 39-15.609 39-39s-15.609-39-39-39h-78c-23.391 0-39 15.609-39 39s15.609 39 39 39z" fill="#fff"/>
 <path d="m489 405h78c23.391 0 39-15.609 39-39s-15.609-39-39-39h-78c-23.391 0-39 15.609-39 39s15.609 39 39 39z" fill="#fff"/>
 <path d="m489 522h78c23.391 0 39-15.609 39-39s-15.609-39-39-39h-78c-23.391 0-39 15.609-39 39s15.609 39 39 39z" fill="#fff"/>
</svg>
