<?xml version="1.0" encoding="UTF-8"?>
<svg width="1200pt" height="1200pt" version="1.1" viewBox="0 0 1200 1200" xmlns="http://www.w3.org/2000/svg">
 <path d="m1004.3 333.32s-1.6875-2.3438-2.3438-3.6562c-61.688-105.33-161.02-180.66-276.98-212.68l19.312-33.656c6-10.312 6-23.016 0-33.328s-17.016-16.688-29.016-16.688h-230.68c-12 0-23.016 6.3281-29.016 16.688-6 10.312-6 23.016 0 33.328l19.312 33.656c-116.02 31.688-215.34 107.34-276.98 212.68-0.98437 1.3125-1.6875 2.3438-2.3438 3.6562-41.016 71.016-62.344 151.69-62.344 233.34 0 81.656 21.656 162.32 62.344 233.34 0.65625 1.3125 1.6875 2.3438 2.3438 3.6562 38.344 65.344 92.672 119.34 156.98 159l-45.656 137.34h-75.984c-18.328 0-33.328 15-33.328 33.328s15 33.328 33.328 33.328h732.98c18.328 0 33.328-15 33.328-33.328s-15-33.328-33.328-33.328h-75.984l-45.656-137.34c64.312-39.656 118.31-93.656 156.98-159 0.98437-1.3125 1.6875-2.3438 2.3438-3.6562 41.016-71.016 62.344-151.69 62.344-233.34 0-81.656-21.656-162.32-62.344-233.34zm-43.359 403.36-232.69-134.68c3.3281-11.672 5.0156-23.672 5.0156-35.672s-1.6875-24-5.0156-35.672l232.69-134.68c24.984 53.344 39 111.33 39 170.02s-14.016 117-39 170.02zm-360.98-103.36c-23.672 0-45.984-12.656-57.656-33-6-10.312-9-21.656-9-33.656s3-23.016 9-33.328c12-20.672 33.984-33.328 57.656-33.328s45.984 12.656 57.656 33c6 10.312 9 21.656 9 33.656s-3 23.016-9 33.328c-12 20.672-33.984 33.328-57.656 33.328zm-360.98 103.36c-24.984-53.344-39-111.33-39-170.02s14.016-117 39-170.02l232.69 134.68c-3.3281 11.672-5.0156 23.672-5.0156 35.672s1.6875 24 5.0156 35.672l-232.69 134.68zm688.97-398.02-233.02 134.68c-17.016-17.344-38.344-29.672-61.688-35.672v-162l57-98.672c96.984 21.984 181.31 79.688 237.98 161.68zm-270.66-238.69-12.984 22.688-0.32813 0.32812-44.016 76.688-44.016-76.688-0.32812-0.32812-12.984-22.688h114.98zm-147.66 77.016 57 98.672v162c-23.344 6-44.672 18.328-61.688 35.672l-233.02-134.68c56.672-81.984 140.68-139.69 237.98-161.68zm-237.32 617.34 232.31-134.34c17.016 17.344 38.344 29.672 61.688 35.672v267.98c-54.328-4.3125-108-18.984-156-45-55.688-29.672-102.66-72.984-138.32-124.69zm107.34 305.68 35.344-105.98c57.984 25.312 121.31 39.328 185.02 39.328 63.656 0 126.98-14.016 185.02-39l35.344 105.66zm409.31-181.03c-48 26.016-101.34 40.312-155.68 44.672v-268.31c23.344-6 44.672-18.328 61.688-35.672l232.31 134.34c-35.672 51.656-82.688 94.688-138.32 124.69z"/>
</svg>
